<?xml version="1.0" standalone="no"?><!DOCTYPE svg PUBLIC "-//W3C//DTD SVG 1.1//EN" "http://www.w3.org/Graphics/SVG/1.1/DTD/svg11.dtd"><svg t="1604035202118" class="icon" viewBox="0 0 1024 1024" version="1.1" xmlns="http://www.w3.org/2000/svg" p-id="3122" xmlns:xlink="http://www.w3.org/1999/xlink" width="200" height="200"><defs><style type="text/css"></style></defs><path d="M928 896h-832C43.072 896 0 852.928 0 800v-576C0 171.072 43.072 128 96 128h832c52.928 0 96 43.072 96 96v576c0 52.928-43.072 96-96 96zM96 192a32 32 0 0 0-32 32v576a32 32 0 0 0 32 32h832c17.6 0 32-14.4 32-32v-576a32 32 0 0 0-32-32h-832z" p-id="3123"></path><path d="M512 557.312a31.872 31.872 0 0 1-17.728-5.376l-320-213.312a32 32 0 1 1 35.456-53.248L512 486.848l302.272-201.472a32 32 0 0 1 35.456 53.248l-320 213.312A31.36 31.36 0 0 1 512 557.312z" p-id="3124"></path></svg>