<?xml version="1.0" standalone="no"?><!DOCTYPE svg PUBLIC "-//W3C//DTD SVG 1.1//EN" "http://www.w3.org/Graphics/SVG/1.1/DTD/svg11.dtd"><svg t="1603178811256" class="icon" viewBox="0 0 1024 1024" version="1.1" xmlns="http://www.w3.org/2000/svg" p-id="4503" xmlns:xlink="http://www.w3.org/1999/xlink" width="128" height="128"><defs><style type="text/css"></style></defs><path d="M109.6 357.6c12 9.9 27.6 15.5 43.4 15.8 86.1 1.5 172.2 3.2 258.4 5.2 86.1 1.8 172.2 1.9 258.4 0.3 43.1-0.7 86.1-2.5 129.2-4.7 10.8-0.4 21.5-1.2 32.3-1.8l33.1-2.1c15.1-1.1 29.3-8 39.7-18.1 10.6-10 17.2-23.6 19.1-37.6 0.5-3.5 0.6-7 0.5-10.5-0.1-3.1-0.3-5.5-0.5-8.3l-1.1-16.1-2.1-32.3c-1.2-21.5-2.7-43.1-3.6-64.6l-1.4-32.3-0.7-16.1c-0.2-5.2-0.5-11.4-1.9-17-2.8-11.4-9.9-21.4-18.9-28.5-9.1-7.1-20.6-10.8-32-10.7-86.1 1.1-172.2 0-258.4-3-86.1-3-172.2-6.4-258.4-8l-129.2-2.1-65.3-0.9c-14.6 0.3-29 6.1-40.1 15.5-11.2 9.4-19 22.8-22 37.4-0.7 3.6-1.1 7.3-1.2 11l-0.2 8.3-0.3 16.1-0.5 32.3-1 64.6-0.5 32.3-0.3 16.1c-0.2 4.3-0.2 13.4 1.5 20.8 3.3 15.4 12 29.2 24 39z m13.8-234c1.9-13.3 14.3-25 28.2-25.6l63.9-1.1 129.2-2.1c86.1-1.6 172.2-5 258.4-8 86.1-3 172.2-4.2 258.4-3 10.1 0.3 20.1 3.9 27.8 10.4 7.7 6.5 13.1 15.5 14.9 25.1 1 4.9 0.9 9.5 0.6 15.1l-0.7 16.1-1.4 32.3c-1 21.5-2.4 43.1-3.6 64.6l-2.1 32.3-1.1 16.1c-0.2 2.6-0.3 5.6-0.6 7.9-0.2 1.9-0.6 3.7-1.1 5.5-4 14.6-18.6 24.1-31.5 22.8l-63.8-3.7c-43.1-2.1-86.1-3.9-129.2-4.7-86.1-1.6-172.2-1.5-258.4 0.3-86.1 2-172.2 3.7-258.4 5.2-5.8 0-11.6-1.6-16.4-5.3-4.7-3.6-8.4-8.9-9.9-14.7-1.4-3.8-0.9-17.3-1.2-27.5l-0.5-32.3-1-64.6-0.5-32.3-0.3-16.1-0.1-7.8c0-1.6 0.1-3.2 0.4-4.9zM932.4 862.8c-2.3-53.6-5.2-107.2-8.2-160.8-3-53.6-5.8-107.2-7.9-160.8l-2.6-80.4-0.1-5-0.4-5.4c-0.5-3.6-1.3-7.1-2.5-10.6-2.4-6.8-6.3-13.1-11.1-18.3-9.7-10.5-23.9-16.8-38.1-16.5-107.2 1.1-214.4 0-321.6-3-107.2-3-214.4-6.4-321.6-8l-40.2-0.5-20.1-0.3-5.1-0.1-6.6 0.3c-4.4 0.5-8.7 1.3-12.9 2.7-16.8 5.3-31 17.9-38.4 34-3.7 8-5.7 16.9-5.8 25.8l-0.2 20-2 160.8-2.1 160.8-1 80.4-0.1 5 0.3 7.2c0.5 4.8 1.5 9.6 2.9 14.2 2.9 9.2 7.9 17.8 14.3 25 12.7 14.5 32 23.5 51.6 23.6l321.6 5.2c107.2 1.8 214.4 1.9 321.6 0.3l40.2-0.8 20.1-0.5 5.1-0.1c2.6-0.1 5.2-0.3 7.7-0.6 5.1-0.7 10.2-1.8 15.1-3.5 19.6-6.8 35.4-22.1 43.2-40.7 3.9-9.3 5.8-19.5 5.6-29.5l-0.7-19.9z m-27.1-402l-2.6 80.4c-2.1 53.6-4.9 107.2-7.9 160.8-3 53.6-5.9 107.2-8.2 160.8l-0.8 20.1c-0.2 3.5-1.2 6.6-2.8 9.5-3.1 5.8-8.9 10-14.7 11.6-1.5 0.4-3 0.6-4.5 0.7-0.8 0-1.5-0.1-2.3 0l-5-0.1-20.1-0.5-40.2-0.8c-107.2-1.6-214.4-1.5-321.6 0.3L153 908.9c-7.2 0.2-14.4-2.9-19.6-8.3-2.6-2.7-4.6-5.9-5.8-9.4-0.6-1.7-1-3.6-1.3-5.4l-0.3-2.8-0.1-5-1-80.4-2.1-160.8-2.1-160.8-0.3-20.1c-0.1-4.6 0.8-9.1 2.6-13.2 3.5-8.4 10.9-15.3 19.6-18.4 2.2-0.8 4.4-1.2 6.7-1.6l3.5-0.3 5-0.1 20.2-0.3 40.2-0.5c107.2-1.6 214.4-5 321.6-8 107.2-3 214.4-4.2 321.6-3 12.7 0.1 25 6 33.1 15.4 4.1 4.7 7.2 10.3 9 16.2 0.9 3 1.4 6 1.7 9.1l0.1 4.6v5z" fill="#e6e6e6" p-id="4504"></path><path d="M405.2 683.1l-0.8-13-10.7-2.7-46.1-11.8c-6.7-1.7-13.5-3.5-20.2-5.2 6-2.6 11.7-5.1 18.3-7.7 15.9-6.3 30.8-13 45.1-18.9 1.9-5.2 3.8-11.2 5.6-17.9 1.9-6.6 3.4-13.8 4.9-21.3l3-15.1-20.4 3.1c-24.7 3.8-48.8 9.1-72.5 15.4-11.9 3.1-23.6 6.6-35.3 10.1-11.7 3.6-23.2 7.6-34.6 12l-18.3 7.1-0.1 19.8c0 5.2 0.2 10.4 0.3 15.6 0.1 5.2 0.5 10.4 0.7 15.6l1.1 20.5 16.7 5.3c11.6 3.7 23.4 7 35.1 10.6 11.7 3.5 23.4 7 35.1 10.8l69.7 22.8 27 8.8-1.6-26.3-2-37.6z m-117.1-28.4c-0.5-0.3-1.1-0.5-1.6-0.8 0.6-0.3 1.1-0.5 1.7-0.8v0.1l-0.1 1.5z m52.8-24.3c-3.5 0.8-7.2 1.7-11 2.8 17.6-9.1 34.9-18.8 51.8-29.4 1.6 5.1 3.1 10.6 4.7 16.7l-45.5 9.9zM518.1 519.3l-19.2 3.8-2.3 13.5c-3.7 21.6-7.4 43.1-10.8 64.8l-10.3 64.9c-3.5 21.6-6.4 43.3-9.7 65l-9.4 65.1-1 6.9 6.2-0.5c11.1-0.8 21.7-2.1 31.6-3.1 9.3-15.9 17.8-34.4 26-54s15.9-40.5 23-62.2c7.1-21.7 13.6-44.2 19-67 5.4-22.9 9.9-46.1 12.6-69.3l4-35-29.8 2.9c-10 0.8-19.9 2.2-29.9 4.2z m-28.5 275.9l-21.3-2.4 17.2-57.3c2.2-7.6 4.6-15.3 6.9-22.9-0.2 2.9-0.4 5.7-0.5 8.6-1.2 23.1-2.1 47.3-2.3 74zM702.5 588.7c-10.9-5.7-21.9-11.1-32.9-16.3-11-5.3-22.2-10.2-33.6-14.7l-38.8-15.3-0.3 42.1c-0.1 12.5 0.3 25 1.1 37.6l1.4 21.6 17.9 4.8c7.6 2 15.4 3.7 23 5.5l9.8 2.3c-9.8 3.8-19.6 7.7-29.4 11.5l-11.8 4.6 0.7 10.7 2.3 37.6 1.3 21 17.3-8.2 68.6-32.4 65.4-31.3c1.6-4.4 3.2-9.4 4.8-14.9 1.6-5.5 3-11.5 4.2-17.8l1-4.9-8.2-5.6c-20.6-14.1-42-26.5-63.8-37.9zM640.6 702l0.4-6.3c12-3.1 24-6.1 35.9-9.3 15.4-4.2 30.6-8.7 46-13l13.6-3.8 0.8-16.3 0.1-1.3 0.4-7.7c5.4 1 10.9 1.8 16.4 2.6 0.4 1.2 0.7 2.3 1.1 3.5 1.5 4.9 3.2 10.2 4.8 16.2L640.6 702z" fill="#e6e6e6" p-id="4505"></path></svg>