<?xml version="1.0" standalone="no"?><!DOCTYPE svg PUBLIC "-//W3C//DTD SVG 1.1//EN" "http://www.w3.org/Graphics/SVG/1.1/DTD/svg11.dtd"><svg t="1604040975877" class="icon" viewBox="0 0 1024 1024" version="1.1" xmlns="http://www.w3.org/2000/svg" p-id="4277" xmlns:xlink="http://www.w3.org/1999/xlink" width="200" height="200"><defs><style type="text/css"></style></defs><path d="M869.033043 393.846154a54.136928 54.136928 0 0 1 54.136928 54.136928v467.743061a54.136928 54.136928 0 0 1-54.136928 54.136929H154.966957a54.136928 54.136928 0 0 1-54.136928-54.136929V447.983082a54.136928 54.136928 0 0 1 54.136928-54.136928h714.066086m0-54.136929H154.966957a108.273857 108.273857 0 0 0-108.273856 108.273857v467.743061a108.273857 108.273857 0 0 0 108.273856 108.273857h714.066086a108.273857 108.273857 0 0 0 108.273856-108.273857V447.983082a108.273857 108.273857 0 0 0-108.273856-108.273857z" p-id="4278"></path><path d="M817.873645 362.71742h-54.136928v-56.843775a251.736717 251.736717 0 1 0-503.473434 0v56.843775h-54.136928v-56.843775a305.873645 305.873645 0 1 1 611.74729 0z" p-id="4279"></path><path d="M438.644462 520.526566m71.460746 0l3.789584 0q71.460745 0 71.460746 71.460746l0 3.789585q0 71.460745-71.460746 71.460745l-3.789584 0q-71.460745 0-71.460746-71.460745l0-3.789585q0-71.460745 71.460746-71.460746Z" p-id="4280"></path><path d="M483.036743 567.625694m28.151203 0l1.353423 0q28.151203 0 28.151203 28.151203l0 204.366904q0 28.151203-28.151203 28.151203l-1.353423 0q-28.151203 0-28.151203-28.151203l0-204.366904q0-28.151203 28.151203-28.151203Z" p-id="4281"></path></svg>