<?xml version="1.0" standalone="no"?><!DOCTYPE svg PUBLIC "-//W3C//DTD SVG 1.1//EN" "http://www.w3.org/Graphics/SVG/1.1/DTD/svg11.dtd"><svg t="1604120047866" class="icon" viewBox="0 0 1024 1024" version="1.1" xmlns="http://www.w3.org/2000/svg" p-id="3053" xmlns:xlink="http://www.w3.org/1999/xlink" width="200" height="200"><defs><style type="text/css"></style></defs><path d="M652.3 562.7C741.6 513.3 802 418.2 802 309c0-160.2-129.8-290-290-290-160.2 0-290 129.8-290 290 0 109.2 60.4 204.3 149.7 253.7C184 622.2 48 797.7 48 1005l58 0c0-224.2 181.8-406 406-406 224.2 0 406 181.8 406 406l58 0C976 797.7 840 622.2 652.3 562.7zM280 309c0-128.1 103.9-232 232-232 128.1 0 232 103.9 232 232 0 128.1-103.9 232-232 232C383.9 541 280 437.1 280 309z" p-id="3054"></path></svg>