<?xml version="1.0" standalone="no"?><!DOCTYPE svg PUBLIC "-//W3C//DTD SVG 1.1//EN" "http://www.w3.org/Graphics/SVG/1.1/DTD/svg11.dtd"><svg t="1608023537346" class="icon" viewBox="0 0 1024 1024" version="1.1" xmlns="http://www.w3.org/2000/svg" p-id="5468" xmlns:xlink="http://www.w3.org/1999/xlink" width="200" height="200"><defs><style type="text/css"></style></defs><path d="M1024 824c0 110-90 200-200 200H200C90 1024 0 934 0 824V200C0 90 90 0 200 0h624c110 0 200 90 200 200v624z" fill="#44A7DF" p-id="5469"></path><path d="M782.1 758.8h-18.175V542.425c0-20.388-16.313-36.188-36.412-36.188h-71.469c-20.463 0-36.444 16.2-36.444 36.188V758.8h-36.074V253.931c0-20.131-16.313-36.331-36.406-36.331h-71.513c-20.419 0-36.406 16.272-36.406 36.331V758.8h-36.075V397.856c0-19.881-16.313-35.938-36.406-35.938h-71.513c-20.418 0-36.406 16.094-36.406 35.938V758.8h-18.175c-9.75 0-17.9 8.075-17.9 18.038 0 9.668 8.012 18.037 17.9 18.037h541.45c9.774 0 17.925-8.081 17.925-18.037-0.001-9.669-8.014-18.038-17.901-18.038z m0 0" fill="#FFFFFF" p-id="5470"></path></svg>