<?xml version="1.0" standalone="no"?><!DOCTYPE svg PUBLIC "-//W3C//DTD SVG 1.1//EN" "http://www.w3.org/Graphics/SVG/1.1/DTD/svg11.dtd"><svg t="1608023594352" class="icon" viewBox="0 0 1024 1024" version="1.1" xmlns="http://www.w3.org/2000/svg" p-id="7673" xmlns:xlink="http://www.w3.org/1999/xlink" width="200" height="200"><defs><style type="text/css"></style></defs><path d="M334.6 448.9C362 531 422.2 629.5 515.3 624.1c93.1-5.5 147.8-98.5 175.2-180.7 43.8-10.9 43.8-76.6 11-104 7.8-85.3 33.7-207.8-63.1-212.3-26.2-1.2-41.7-28.4-141.1-19.8-60.5 5.3-120.9 16.1-158.3 52.9-38.3 37.7-36 110.6-26.2 184.7-32.9 21.9-22 87.6 21.8 104z m296 208c-31.3 60.2-49.2 131.4-80.5 186.1-4.5-38.3-3.9-63.5-4.5-142.3h-76c4.5 98.5 4.5 98.5-4.5 142.3-22.4-60.2-44.7-131.4-76-186.1-134.2 21.9-232.6 87.6-237 273.7h715.6c-0.1-186.1-103-251.8-237.1-273.7z m27 0" fill="#83C1FF" p-id="7674"></path><path d="M879.1 808c-12.8-34.4-32-64.1-57.1-88.2-42.6-41-102.8-67.1-184.3-79.9l-11.5-1.8-6.2 11.5c-16 29.6-28.6 61.4-40.8 92.1-4.5 11.4-9 22.6-13.5 33.5-0.2-11.8-0.2-25.3-0.3-41.6 0-8.8-0.1-18.4-0.2-28.9l-0.1-21.2h-116l1.1 22.6c1.2 25.9 2.1 44.7 2.6 59.3-15.5-40.8-32.3-81.4-53.2-116.5l-6.3-10.7-10.9 1.7c-80.7 12.7-140.4 38.9-182.6 80-24.6 23.9-43.6 53.5-56.7 88-13.7 36-21.2 78.5-22.4 126.3l-0.5 22h779.4v-21.4c-0.1-47.8-7-90.5-20.5-126.8zM158 913.5c9.7-132.8 77.9-204.2 218.1-229.3 21.8 39.5 39.3 86.8 56.3 132.7 5.1 13.6 9.8 26.5 14.7 39.2l21.5 55.8 12.6-59.4c9.1-43.1 9.8-48.2 6.2-126.1h41.7v7.7c0.3 57.8 0.5 81.7 4.6 116.3l6.5 53.6 26.3-44.3c18.1-30.4 32-65.6 45.5-99.6 10.1-25.4 20.4-51.5 32.4-75.6 143.5 25.6 211.6 97 218.1 229.2H158z" fill="#FFFFFF" p-id="7675"></path><path d="M669.9 88.6c-38.5-17.4-125-25.7-170-24.6-44.8 1.1-132.9 16.2-168.4 39.6-31.9 20.9-47.6 50.3-53.4 97.4-4.6 37.5 8.5 96.9 12.5 139.5-13.7 14.7-20.1 36.1-17.4 59.8 3.4 29.6 20.5 55.4 44.5 68.6 16.6 46.7 40.2 88.7 66.9 119 35.9 40.8 78.6 62.2 123.8 62.2 2.8 0 5.7-0.1 8.5-0.3 48.3-2.8 91.2-26.1 127.3-69.2 31-36.9 51.2-81.9 63.5-116.2 18.5-8.5 31.6-25.2 36.7-47.3 6.5-28.5-1.8-60.5-20.5-81.7 2.6-44.5 19.7-71.8 22.7-119.2 3-47-12.7-98.8-76.7-127.6z m32.7 318.9c-2.4 10.7-8.2 17.2-17.1 19.4l-11.4 2.8-3.7 11.1c-19.9 59.8-66.7 160.8-156.1 166.1-35.2 2.1-68.1-13.9-97.6-47.5-24.7-28-46.5-68.2-61.5-113.1l-3.2-9.7-9.6-3.6c-17.3-6.5-25.3-24.5-26.8-37.9-1.1-9.9 0.7-22.6 9.3-28.3l11.1-7.4-1.7-13.2c-9.7-73.8-26.8-158.9 27.7-194.7 30.9-20.3 110.1-31.7 147.3-31.7 33.9 0 73.7 4.2 106.6 8.7 124.9 17.1 79.3 135.3 64.6 213l-1 11.2 8.6 7.2c12.1 10.3 18.4 30.7 14.5 47.6z" fill="#FFFFFF" p-id="7676"></path></svg>